<mxfile host="app.diagrams.net" modified="2024-07-11T11:21:41.056Z" agent="Mozilla/5.0 (Macintosh; Intel Mac OS X 10_15_7) AppleWebKit/537.36 (KHTML, like Gecko) Chrome/125.0.0.0 Safari/537.36" etag="pXZ_ZgRFCZ5uBpxt7MZh" version="24.6.4" type="browser">
  <diagram name="Страница — 1" id="pJj1evB7CvRK-wDDimue">
    <mxGraphModel dx="1658" dy="1035" grid="1" gridSize="10" guides="1" tooltips="1" connect="1" arrows="1" fold="1" page="1" pageScale="1" pageWidth="827" pageHeight="1169" math="0" shadow="0">
      <root>
        <mxCell id="0" />
        <mxCell id="1" parent="0" />
        <mxCell id="IZGjo8wLDMpIw_5bH9OH-1" value="Клиент" style="rounded=0;whiteSpace=wrap;html=1;" parent="1" vertex="1">
          <mxGeometry x="60" y="170" width="120" height="60" as="geometry" />
        </mxCell>
        <mxCell id="IZGjo8wLDMpIw_5bH9OH-2" value="" style="endArrow=classic;html=1;rounded=0;" parent="1" edge="1">
          <mxGeometry width="50" height="50" relative="1" as="geometry">
            <mxPoint x="180" y="200" as="sourcePoint" />
            <mxPoint x="240" y="200" as="targetPoint" />
          </mxGeometry>
        </mxCell>
        <mxCell id="IZGjo8wLDMpIw_5bH9OH-3" value="&lt;p style=&quot;line-height: 120%;&quot;&gt;&lt;br&gt;&lt;/p&gt;" style="rounded=0;whiteSpace=wrap;html=1;align=left;" parent="1" vertex="1">
          <mxGeometry x="470" y="50" width="810" height="710" as="geometry" />
        </mxCell>
        <mxCell id="IZGjo8wLDMpIw_5bH9OH-6" value="Сервисы" style="text;html=1;align=center;verticalAlign=middle;resizable=0;points=[];autosize=1;strokeColor=none;fillColor=none;" parent="1" vertex="1">
          <mxGeometry x="480" y="10" width="70" height="30" as="geometry" />
        </mxCell>
        <mxCell id="IZGjo8wLDMpIw_5bH9OH-7" value="&lt;div&gt;Пользователи&lt;/div&gt;&lt;div&gt;&lt;br&gt;&lt;/div&gt;&lt;div&gt;&lt;br&gt;&lt;/div&gt;&lt;div&gt;&lt;br&gt;&lt;/div&gt;&lt;div&gt;&lt;br&gt;&lt;/div&gt;&lt;div&gt;&lt;br&gt;&lt;/div&gt;&lt;div&gt;&lt;br&gt;&lt;/div&gt;&lt;div&gt;&lt;br&gt;&lt;/div&gt;&lt;div&gt;&lt;br&gt;&lt;/div&gt;&lt;div&gt;&lt;br&gt;&lt;/div&gt;&lt;div&gt;&lt;br&gt;&lt;/div&gt;&lt;div&gt;&lt;br&gt;&lt;/div&gt;&lt;div&gt;&lt;br&gt;&lt;/div&gt;" style="rounded=0;whiteSpace=wrap;html=1;" parent="1" vertex="1">
          <mxGeometry x="510" y="95" width="330" height="215" as="geometry" />
        </mxCell>
        <mxCell id="IZGjo8wLDMpIw_5bH9OH-8" value="Авторизация" style="rounded=0;whiteSpace=wrap;html=1;" parent="1" vertex="1">
          <mxGeometry x="530" y="145" width="120" height="60" as="geometry" />
        </mxCell>
        <mxCell id="IZGjo8wLDMpIw_5bH9OH-9" value="Лента&lt;div&gt;публикаций&lt;/div&gt;" style="rounded=0;whiteSpace=wrap;html=1;" parent="1" vertex="1">
          <mxGeometry x="670" y="145" width="130" height="60" as="geometry" />
        </mxCell>
        <mxCell id="IZGjo8wLDMpIw_5bH9OH-10" value="&lt;h3 style=&quot;box-sizing: inherit; text-rendering: optimizelegibility; -webkit-font-smoothing: antialiased; font-family: &amp;quot;TT Norms Pro&amp;quot;, Arial, sans-serif; color: rgb(51, 51, 51); margin: 15px 0px; font-size: 20px; line-height: 30px; padding: 0px; border-bottom: none; align-self: flex-start; text-align: left; background-color: rgb(255, 255, 255); font-variant-ligatures: none;&quot; id=&quot;9.-api-gateway&quot;&gt;&amp;nbsp;API Gateway&lt;/h3&gt;" style="rounded=0;whiteSpace=wrap;html=1;" parent="1" vertex="1">
          <mxGeometry x="240" y="170" width="190" height="60" as="geometry" />
        </mxCell>
        <mxCell id="IZGjo8wLDMpIw_5bH9OH-11" value="" style="endArrow=classic;html=1;rounded=0;" parent="1" edge="1">
          <mxGeometry width="50" height="50" relative="1" as="geometry">
            <mxPoint x="430" y="205" as="sourcePoint" />
            <mxPoint x="470" y="205" as="targetPoint" />
          </mxGeometry>
        </mxCell>
        <mxCell id="IZGjo8wLDMpIw_5bH9OH-13" value="Публикации&lt;div&gt;&lt;br&gt;&lt;br&gt;&lt;br&gt;&lt;br&gt;&lt;br&gt;&lt;br&gt;&lt;br&gt;&lt;br&gt;&lt;br&gt;&lt;br&gt;&lt;br&gt;&lt;br&gt;&lt;br&gt;&lt;br&gt;&lt;br&gt;&lt;br&gt;&lt;br&gt;&lt;br&gt;&lt;br&gt;&lt;/div&gt;&lt;div&gt;&lt;br&gt;&lt;/div&gt;&lt;div&gt;&lt;br&gt;&lt;/div&gt;&lt;div&gt;&lt;br&gt;&lt;/div&gt;&lt;div&gt;&lt;br&gt;&lt;/div&gt;&lt;div&gt;&lt;br&gt;&lt;/div&gt;&lt;div&gt;&lt;br&gt;&lt;/div&gt;&lt;div&gt;&lt;br&gt;&lt;/div&gt;&lt;div&gt;&lt;br&gt;&lt;/div&gt;&lt;div&gt;&lt;br&gt;&lt;/div&gt;&lt;div&gt;&lt;br&gt;&lt;/div&gt;" style="rounded=0;whiteSpace=wrap;html=1;" parent="1" vertex="1">
          <mxGeometry x="890" y="95" width="330" height="465" as="geometry" />
        </mxCell>
        <mxCell id="IZGjo8wLDMpIw_5bH9OH-14" value="Лайки" style="rounded=0;whiteSpace=wrap;html=1;" parent="1" vertex="1">
          <mxGeometry x="920" y="160" width="120" height="60" as="geometry" />
        </mxCell>
        <mxCell id="IZGjo8wLDMpIw_5bH9OH-15" value="&lt;div&gt;&lt;span style=&quot;color: rgb(51, 51, 51); font-family: &amp;quot;TT Norms Pro&amp;quot;, Arial, sans-serif; font-size: 16px; font-variant-ligatures: none; text-align: start; background-color: rgb(255, 255, 255);&quot;&gt;Рассылка почтовых уведомлений на&amp;nbsp;email&lt;/span&gt;&lt;/div&gt;" style="rounded=0;whiteSpace=wrap;html=1;" parent="1" vertex="1">
          <mxGeometry x="510" y="350" width="330" height="100" as="geometry" />
        </mxCell>
        <mxCell id="IZGjo8wLDMpIw_5bH9OH-19" value="&lt;span style=&quot;color: rgb(51, 51, 51); font-family: &amp;quot;TT Norms Pro&amp;quot;, Arial, sans-serif; font-size: 16px; font-variant-ligatures: none; text-align: start; background-color: rgb(255, 255, 255);&quot;&gt;Комментарии&lt;/span&gt;" style="rounded=0;whiteSpace=wrap;html=1;" parent="1" vertex="1">
          <mxGeometry x="920" y="240" width="160" height="60" as="geometry" />
        </mxCell>
        <mxCell id="IZGjo8wLDMpIw_5bH9OH-20" value="поиск" style="rounded=0;whiteSpace=wrap;html=1;" parent="1" vertex="1">
          <mxGeometry x="920" y="330" width="120" height="60" as="geometry" />
        </mxCell>
        <mxCell id="IZGjo8wLDMpIw_5bH9OH-21" value="&lt;span style=&quot;color: rgb(51, 51, 51); font-family: &amp;quot;TT Norms Pro&amp;quot;, Arial, sans-serif; font-size: 16px; font-variant-ligatures: none; text-align: start; background-color: rgb(255, 255, 255);&quot;&gt;Подписка на&amp;nbsp;обновления других пользователей&lt;/span&gt;" style="rounded=0;whiteSpace=wrap;html=1;" parent="1" vertex="1">
          <mxGeometry x="530" y="230" width="270" height="60" as="geometry" />
        </mxCell>
        <mxCell id="IZGjo8wLDMpIw_5bH9OH-22" value="&lt;span style=&quot;color: rgb(51, 51, 51); font-family: &amp;quot;TT Norms Pro&amp;quot;, Arial, sans-serif; font-size: 16px; font-variant-ligatures: none; text-align: start; background-color: rgb(255, 255, 255);&quot;&gt;Загрузка изображений&lt;/span&gt;" style="rounded=0;whiteSpace=wrap;html=1;" parent="1" vertex="1">
          <mxGeometry x="920" y="420" width="200" height="60" as="geometry" />
        </mxCell>
      </root>
    </mxGraphModel>
  </diagram>
</mxfile>
